<svg width="53" height="53" viewBox="0 0 53 53" fill="none" xmlns="http://www.w3.org/2000/svg">
<path d="M41.7234 0H11.2766C5.0487 0 0 5.0487 0 11.2766V41.7234C0 47.9513 5.0487 53 11.2766 53H41.7234C47.9513 53 53 47.9513 53 41.7234V11.2766C53 5.0487 47.9513 0 41.7234 0Z" fill="#422CFF"/>
<path d="M43.7169 27.9296C44.8178 26.8287 44.8178 25.0436 43.7169 23.9427L25.7759 6.00176C24.675 4.90082 22.8899 4.90082 21.789 6.00176C20.688 7.10271 20.688 8.88769 21.789 9.98864L37.7365 25.9362L21.789 41.8836C20.688 42.9846 20.688 44.7696 21.789 45.8706C22.8899 46.9715 24.675 46.9715 25.7759 45.8706L43.7169 27.9296ZM38.3404 28.7553H41.7234V23.117H38.3404V28.7553Z" fill="white"/>
<path d="M32.4403 27.9296C33.5413 26.8287 33.5413 25.0436 32.4403 23.9427L14.4994 6.00176C13.3985 4.90082 11.6134 4.90082 10.5125 6.00176C9.41153 7.10271 9.41153 8.88769 10.5125 9.98864L26.46 25.9362L10.5125 41.8836C9.41153 42.9846 9.41153 44.7696 10.5125 45.8706C11.6134 46.9715 13.3985 46.9715 14.4994 45.8706L32.4403 27.9296ZM27.0639 28.7553H30.4469V23.117H27.0639V28.7553Z" fill="black"/>
</svg>
