<svg width="51" height="51" viewBox="0 0 51 51" fill="none" xmlns="http://www.w3.org/2000/svg">
<path d="M46.4985 44.083L34.8394 32.4239C37.0978 29.6343 38.4575 26.0895 38.4575 22.2288C38.4575 13.2808 31.1768 6 22.2287 6C13.2807 6 6 13.2807 6 22.2287C6 31.1768 13.2808 38.4575 22.2288 38.4575C26.0895 38.4575 29.6343 37.0978 32.4239 34.8394L44.083 46.4985C44.4161 46.8316 44.8534 46.999 45.2908 46.999C45.7281 46.999 46.1654 46.8316 46.4985 46.4985C47.1665 45.8306 47.1665 44.7509 46.4985 44.083ZM22.2288 35.0409C15.1633 35.0409 9.41661 29.2943 9.41661 22.2287C9.41661 15.1632 15.1633 9.41653 22.2288 9.41653C29.2943 9.41653 35.041 15.1632 35.041 22.2287C35.041 29.2943 29.2943 35.0409 22.2288 35.0409Z" fill="white"/>
</svg>
